<svg xmlns="http://www.w3.org/2000/svg" width="45" height="17" fill="none"><g clip-path="url(#a)"><path fill="#5A668A" d="M7.549 9.59c.105 0 .206.003.303.012l.01-.007c.126.017.376.05.607.125.232.073.442.189.606.307.16.117.276.24.349.388.072.148.109.324.13.613.015.29.015.69-.05 1.439a52.867 52.867 0 0 1-.298 2.543c-.102.705-.174 1.013-.269 1.241-.094.235-.217.39-.355.5a1.15 1.15 0 0 1-.45.212C7.979 17 7.842 17 7.71 17c-.13 0-.254 0-.421-.037-.167-.036-.385-.103-.545-.235a.893.893 0 0 1-.182-.198c-.28-.29-.403-.834-.588-2.138-.307-2.16-.374-3.496-.197-3.92.236-.56.876-.879 1.77-.882ZM7.557 0c2.099 0 3.996.821 5.441 2.357 1.1 1.158 1.718 2.385 2.035 4 .107.538.107 2.004.007 2.609a7.764 7.764 0 0 1-2.911 4.824c-.547.418-1.884 1.148-2.1 1.148-.078 0-.086-.083-.05-.419.065-.539.13-.651.432-.78.481-.204 1.3-.795 1.804-1.307a6.987 6.987 0 0 0 1.804-3.22c.187-.751.165-2.42-.043-3.192-.654-2.456-2.631-4.365-5.053-4.875-.705-.146-1.984-.146-2.696 0-2.451.51-4.478 2.514-5.097 5.035-.165.685-.165 2.354 0 3.039.41 1.668 1.474 3.199 2.869 4.11.273.182.603.371.74.43.302.13.367.24.424.78.036.327.029.422-.05.422-.05 0-.417-.16-.805-.35l-.036-.027C2.05 13.476.627 11.602.11 9.109c-.13-.644-.151-2.18-.03-2.77.324-1.584.943-2.824 1.97-3.92C3.532.837 5.437 0 7.558 0Zm16.95 10.152c1.091 0 1.76.734 1.76 1.941 0 1.21-.666 1.94-1.76 1.94-1.098 0-1.76-.73-1.76-1.94 0-1.204.672-1.94 1.76-1.94Zm16.25 0c.87 0 1.415.393 1.476 1.071h-.78c-.06-.262-.305-.43-.693-.43-.378 0-.662.185-.662.454 0 .212.174.341.542.427l.646.15c.699.16 1.024.467 1.024 1.016 0 .716-.646 1.194-1.56 1.194-.913 0-1.489-.403-1.553-1.082h.82c.08.277.338.44.753.44.418 0 .71-.187.71-.463 0-.212-.158-.345-.506-.423l-.649-.154c-.703-.164-1.034-.494-1.034-1.057 0-.675.603-1.143 1.466-1.143Zm-7.717 0c.94 0 1.51.546 1.596 1.33h-.79c-.076-.361-.35-.62-.806-.62-.569 0-.907.447-.907 1.22 0 .785.342 1.242.907 1.242.432 0 .72-.208.807-.597h.79c-.09.781-.666 1.307-1.593 1.307-1.101 0-1.75-.723-1.75-1.951 0-1.21.645-1.93 1.746-1.93Zm3.869 0c.94 0 1.469.468 1.469 1.259v2.548h-.8v-.512h-.057c-.204.362-.606.573-1.084.573-.706 0-1.212-.437-1.212-1.119 0-.675.499-1.064 1.39-1.118l.943-.058v-.314c0-.365-.241-.57-.69-.57-.381 0-.642.137-.719.39h-.783c.067-.66.672-1.079 1.543-1.079Zm-6.482-1.367v5.174h-.803v-.59h-.057c-.208.409-.63.651-1.138.651-.927 0-1.506-.743-1.506-1.93 0-1.18.582-1.924 1.506-1.924.502 0 .917.246 1.111.655h.057V8.785h.83Zm13.79.528v.938H45v.676h-.783v1.831c0 .368.154.532.502.532.117 0 .18-.007.281-.017v.662c-.12.024-.274.04-.435.04-.84 0-1.175-.29-1.175-1.012v-2.036h-.578v-.676h.578v-.938h.827Zm-23.675-.276c.963 0 1.623.672 1.623 1.664 0 .976-.683 1.644-1.66 1.644h-1.047v1.614h-.864V9.037h1.948Zm17.016 3.257-.827.055c-.465.03-.682.201-.682.505 0 .313.264.5.632.5.502 0 .877-.33.877-.763v-.297Zm-13.05-1.432c-.58 0-.911.453-.911 1.231 0 .781.331 1.231.91 1.231s.907-.45.907-1.231c0-.778-.331-1.231-.907-1.231Zm4.179.024c-.566 0-.914.457-.914 1.207 0 .754.345 1.207.914 1.207.572 0 .92-.457.92-1.207 0-.743-.351-1.207-.92-1.207ZM8.67 2.656c2.502.565 4.277 3.104 3.932 5.623-.137 1.015-.482 1.85-1.093 2.624-.301.391-1.035 1.048-1.164 1.048-.02 0-.04-.205-.043-.47v-.63l.373-.453c1.41-1.71 1.309-4.1-.23-5.669-.596-.61-1.286-.969-2.178-1.134-.575-.108-.697-.108-1.3-.008C6.05 3.74 5.34 4.1 4.71 4.731c-1.545 1.553-1.646 3.955-.237 5.667l.37.452v.554c0 .306-.023.554-.052.554-.029 0-.238-.146-.46-.328l-.03-.01c-.748-.605-1.41-1.678-1.683-2.73-.165-.635-.165-1.844.008-2.478.452-1.71 1.696-3.037 3.421-3.66.59-.211 1.898-.258 2.624-.096Zm11.643 7.118h-.857v1.842h.854c.616 0 .977-.328.977-.915 0-.603-.351-.927-.974-.927ZM8.32 5.444c.67.272 1.14.93 1.14 1.7 0 1.008-.805 1.825-1.799 1.825-.651 0-1.221-.35-1.537-.876l-.031-.042a1.848 1.848 0 0 1-.29-1.02c0-.666.367-1.247 1-1.588.403-.214 1.114-.214 1.517.002ZM29.71 3.182c.927 0 1.509.73 1.509 1.927 0 1.19-.576 1.927-1.5 1.927-.525 0-.93-.232-1.117-.627h-.057v1.807h-.83V3.243h.8v.617h.057c.21-.423.636-.679 1.138-.679Zm-4.337 0c.927 0 1.509.73 1.509 1.927 0 1.19-.576 1.927-1.5 1.927-.524 0-.93-.232-1.117-.627h-.057v1.807h-.83V3.243h.8v.617h.057c.21-.423.636-.679 1.138-.679Zm10.13-.013c1.043 0 1.669.706 1.669 1.882v.273h-2.557v.045c.02.62.372 1.009.917 1.009.412 0 .696-.153.817-.43h.786c-.15.679-.763 1.102-1.626 1.102-1.078 0-1.727-.727-1.727-1.927 0-1.2.66-1.954 1.72-1.954ZM32.915 1.8v5.174h-.83V1.8h.83Zm-11.996.253 1.716 4.92h-.926L21.3 5.716h-1.777l-.415 1.259h-.873l1.713-4.921h.97ZM25.116 3.9c-.565 0-.92.464-.924 1.207.004.747.355 1.208.92 1.208.576 0 .918-.454.918-1.208 0-.753-.345-1.207-.914-1.207Zm4.337 0c-.566 0-.92.464-.924 1.207.004.747.355 1.208.92 1.208.576 0 .917-.454.917-1.208 0-.753-.344-1.207-.913-1.207Zm-9.008-.91h-.057l-.663 2.029H21.1l-.655-2.03ZM35.5 3.84c-.495 0-.843.361-.88.907h1.723c-.017-.553-.345-.907-.843-.907Z"/></g><defs><clipPath id="a"><path fill="#fff" d="M0 0h45v17H0z"/></clipPath></defs></svg>