<svg xmlns="http://www.w3.org/2000/svg" width="232" height="104" fill="none"><path fill="#54E6AF" fill-rule="evenodd" d="M8 4a4 4 0 1 1-8 0 4 4 0 0 1 8 0ZM4 72a4 4 0 1 0 0-8 4 4 0 0 0 0 8Zm32 0a4 4 0 1 0 0-8 4 4 0 0 0 0 8Zm36-4a4 4 0 1 1-8 0 4 4 0 0 1 8 0Zm28 4a4 4 0 1 0 0-8 4 4 0 0 0 0 8Zm36-4a4 4 0 1 1-8 0 4 4 0 0 1 8 0Zm28 4a4 4 0 1 0 0-8 4 4 0 0 0 0 8Zm36-4a4 4 0 1 1-8 0 4 4 0 0 1 8 0Zm28 4a4 4 0 1 0 0-8 4 4 0 0 0 0 8ZM8 100a4 4 0 1 1-8 0 4 4 0 0 1 8 0Zm28 4a4 4 0 1 0 0-8 4 4 0 0 0 0 8Zm36-4a4 4 0 1 1-8 0 4 4 0 0 1 8 0Zm28 4a4 4 0 1 0 0-8 4 4 0 0 0 0 8Zm36-4a4 4 0 1 1-8 0 4 4 0 0 1 8 0Zm28 4a4 4 0 1 0 0-8 4 4 0 0 0 0 8Zm36-4a4 4 0 1 1-8 0 4 4 0 0 1 8 0Zm28 4a4 4 0 1 0 0-8 4 4 0 0 0 0 8ZM36 8a4 4 0 1 0 0-8 4 4 0 0 0 0 8Zm36-4a4 4 0 1 1-8 0 4 4 0 0 1 8 0Zm28 4a4 4 0 1 0 0-8 4 4 0 0 0 0 8Zm36-4a4 4 0 1 1-8 0 4 4 0 0 1 8 0Zm28 4a4 4 0 1 0 0-8 4 4 0 0 0 0 8Zm36-4a4 4 0 1 1-8 0 4 4 0 0 1 8 0Zm28 4a4 4 0 1 0 0-8 4 4 0 0 0 0 8ZM8 36a4 4 0 1 1-8 0 4 4 0 0 1 8 0Zm28 4a4 4 0 1 0 0-8 4 4 0 0 0 0 8Zm36-4a4 4 0 1 1-8 0 4 4 0 0 1 8 0Zm28 4a4 4 0 1 0 0-8 4 4 0 0 0 0 8Zm36-4a4 4 0 1 1-8 0 4 4 0 0 1 8 0Zm28 4a4 4 0 1 0 0-8 4 4 0 0 0 0 8Zm36-4a4 4 0 1 1-8 0 4 4 0 0 1 8 0Zm28 4a4 4 0 1 0 0-8 4 4 0 0 0 0 8Z" clip-rule="evenodd"/></svg>