<svg xmlns="http://www.w3.org/2000/svg" width="73" height="11" fill="none"><path fill="#5A668A" d="M4.508 7.278h1.288V3.397H4.508V7.278Z"/><ellipse cx=".644" cy="4.974" fill="#5A668A" rx=".644" ry=".667"/><ellipse cx=".644" cy="5.701" fill="#5A668A" rx=".644" ry=".667"/><path fill="#5A668A" d="M0 4.974h1.288v.728H0z"/><ellipse cx="9.66" cy="5.701" fill="#5A668A" rx=".644" ry=".667"/><ellipse cx="9.66" cy="4.974" fill="#5A668A" rx=".644" ry=".667"/><path fill="#5A668A" d="M10.304 5.702H9.016v-.728h1.288z"/><ellipse cx="2.869" cy="7.157" fill="#5A668A" rx=".644" ry=".667"/><ellipse cx="2.869" cy="7.885" fill="#5A668A" rx=".644" ry=".667"/><path fill="#5A668A" d="M2.225 7.157h1.288v.728H2.225z"/><ellipse cx="2.869" cy="2.79" fill="#5A668A" rx=".644" ry=".667"/><ellipse cx="2.869" cy="5.155" fill="#5A668A" rx=".644" ry=".667"/><path fill="#5A668A" d="M2.225 2.79h1.288v2.381H2.225z"/><ellipse cx="7.435" cy="3.518" fill="#5A668A" rx=".644" ry=".667"/><ellipse cx="7.435" cy="2.79" fill="#5A668A" rx=".644" ry=".667"/><path fill="#5A668A" d="M8.08 3.518H6.792V2.79H8.08z"/><ellipse cx="5.152" cy="1.395" fill="#5A668A" rx=".644" ry=".667"/><ellipse cx="5.152" cy=".667" fill="#5A668A" rx=".644" ry=".667"/><path fill="#5A668A" d="M5.796 1.395H4.508V.667h1.288z"/><ellipse cx="5.152" cy="10.008" fill="#5A668A" rx=".644" ry=".667"/><ellipse cx="5.152" cy="9.28" fill="#5A668A" rx=".644" ry=".667"/><path fill="#5A668A" d="M5.796 10.007H4.508V9.28h1.288z"/><ellipse cx="7.435" cy="7.885" fill="#5A668A" rx=".644" ry=".667"/><ellipse cx="7.435" cy="5.519" fill="#5A668A" rx=".644" ry=".667"/><path fill="#5A668A" d="M8.08 7.885H6.792V5.52H8.08z"/><ellipse cx="5.152" cy="3.397" fill="#5A668A" rx=".644" ry=".667"/><ellipse cx="5.152" cy="7.278" fill="#5A668A" rx=".644" ry=".667"/><path fill="#5A668A" fill-rule="evenodd" d="M40.647 7.824h.788v-2.44h1.301c.52 0 .97-.169 1.349-.508.38-.34.57-.767.57-1.282 0-.516-.19-.944-.57-1.283-.38-.339-.83-.509-1.349-.509h-2.089v6.022Zm2.107-3.18h-1.32V2.543h1.32c.33 0 .596.11.796.328.2.219.3.46.3.724 0 .263-.1.504-.3.723-.2.218-.465.328-.796.328Zm2.553-.445c.406-.42.922-.63 1.55-.63s1.145.208 1.55.626c.405.418.608.94.608 1.568 0 .628-.203 1.151-.608 1.569-.405.417-.922.626-1.55.626s-1.144-.209-1.55-.626c-.405-.418-.607-.94-.607-1.569 0-.628.202-1.149.607-1.564Zm1.55 3.053c-.37 0-.693-.135-.967-.404-.269-.275-.403-.636-.403-1.085 0-.448.136-.808.407-1.08.271-.272.592-.408.963-.408s.692.136.964.408c.27.272.406.632.406 1.08 0 .449-.135.809-.406 1.08a1.315 1.315 0 0 1-.964.409Zm4.532.706c-.542 0-1.01-.21-1.404-.63-.394-.421-.59-.942-.59-1.565 0-.622.196-1.143.59-1.564.394-.42.862-.63 1.404-.63.32 0 .607.067.86.201.255.135.444.303.57.505h.034l-.034-.572v-1.9h.788v6.02h-.754v-.571h-.034c-.126.202-.315.37-.57.504a1.81 1.81 0 0 1-.86.202Zm1.075-1.11c-.26.27-.575.404-.946.404-.366 0-.68-.136-.942-.408-.263-.272-.394-.632-.394-1.08 0-.45.131-.81.394-1.081.262-.272.576-.408.942-.408.37 0 .686.134.946.403.26.27.39.631.39 1.085 0 .454-.13.816-.39 1.085Zm3.877 1.11c-.628 0-1.145-.209-1.55-.626-.405-.418-.608-.94-.608-1.569 0-.628.203-1.15.608-1.568.405-.418.922-.627 1.55-.627.468 0 .856.112 1.164.337.308.224.534.507.676.85l-.719.293c-.217-.515-.608-.773-1.173-.773-.348 0-.655.14-.92.42-.266.28-.398.637-.398 1.068 0 .432.132.788.398 1.068.265.28.572.42.92.42.588 0 .993-.257 1.216-.773l.702.294a1.981 1.981 0 0 1-.69.846c-.316.227-.708.34-1.177.34Zm2.618-.378c.3.252.672.378 1.117.378.605 0 1.065-.235 1.379-.706h.034v.572h.753v-2.49c0-.56-.177-.995-.53-1.303-.354-.308-.8-.463-1.336-.463-.468 0-.845.105-1.13.316-.286.21-.477.438-.574.685l.72.303a.828.828 0 0 1 .38-.437c.186-.107.393-.16.62-.16.31 0 .569.09.78.273a.913.913 0 0 1 .317.728v.117c-.297-.168-.676-.252-1.139-.252-.52 0-.956.128-1.31.383-.354.255-.53.606-.53 1.055 0 .415.149.748.449 1Zm1.245-.328c.326 0 .621-.12.887-.358.265-.238.398-.52.398-.845-.223-.18-.557-.269-1.002-.269-.382 0-.67.081-.865.244-.194.163-.29.353-.29.572 0 .202.088.361.265.48.177.117.38.176.608.176Zm3.184.37c.305.224.692.336 1.16.336.485 0 .882-.123 1.19-.37.308-.247.463-.555.463-.925 0-.275-.095-.521-.283-.74-.188-.219-.48-.373-.873-.462l-.83-.194c-.372-.084-.558-.244-.558-.48 0-.162.08-.29.24-.386.16-.095.357-.143.591-.143.485 0 .805.182.96.547l.684-.278a1.406 1.406 0 0 0-.625-.71 1.975 1.975 0 0 0-.993-.249c-.451 0-.84.114-1.169.341-.328.227-.492.523-.492.887 0 .32.12.573.36.761.239.188.493.316.761.383l.848.202c.382.095.574.277.574.546a.487.487 0 0 1-.236.42c-.157.107-.358.16-.603.16-.537 0-.917-.257-1.14-.773l-.701.286c.142.336.366.617.672.84Zm5.17.269c-.44 0-.775-.115-1.007-.345-.23-.23-.346-.555-.346-.975V4.409h-.737v-.706h.737V2.442h.788v1.26h1.027v.707h-1.027v2.103c0 .448.188.672.565.672a.855.855 0 0 0 .36-.067l.273.665a1.62 1.62 0 0 1-.633.109Zm1.599-.27c.305.225.692.337 1.16.337.485 0 .882-.123 1.19-.37.308-.247.462-.555.462-.925 0-.275-.094-.521-.282-.74-.188-.219-.48-.373-.873-.462l-.83-.194c-.372-.084-.557-.244-.557-.48 0-.162.08-.29.24-.386.16-.095.356-.143.59-.143.485 0 .805.182.96.547l.684-.278a1.406 1.406 0 0 0-.625-.71 1.975 1.975 0 0 0-.993-.249c-.451 0-.84.114-1.169.341-.328.227-.492.523-.492.887 0 .32.12.573.36.761.24.188.493.316.761.383l.848.202c.383.095.574.277.574.546a.487.487 0 0 1-.236.42c-.157.107-.358.16-.603.16-.537 0-.917-.257-1.14-.773l-.701.286c.142.336.366.617.672.84ZM16.387 1.426c-1.738 0-3.194 1.459-3.194 3.259 0 1.794 1.456 3.253 3.194 3.253.934 0 1.642-.317 2.199-.913.569-.583.743-1.409.743-2.08 0-.21-.018-.397-.048-.558h-2.894v.888h2.055c-.06.496-.222.863-.467 1.117-.3.31-.767.652-1.588.652-1.265 0-2.253-1.055-2.253-2.365 0-1.31.988-2.365 2.253-2.365.683 0 1.18.279 1.546.639l.61-.627c-.514-.509-1.198-.9-2.156-.9Zm7.28 4.457c0-1.217-.91-2.098-2.031-2.098-1.12 0-2.032.881-2.032 2.098 0 1.21.911 2.098 2.032 2.098 1.12 0 2.031-.887 2.031-2.098ZM21.636 7.15c.611 0 1.144-.521 1.144-1.272 0-.757-.533-1.273-1.144-1.273-.617 0-1.145.516-1.145 1.273 0 .751.534 1.272 1.145 1.272ZM28.1 5.883c0-1.217-.91-2.098-2.031-2.098-1.12 0-2.031.881-2.031 2.098 0 1.21.91 2.098 2.03 2.098 1.121 0 2.032-.887 2.032-2.098ZM26.07 7.15c.611 0 1.144-.521 1.144-1.272 0-.757-.527-1.273-1.144-1.273-.617 0-1.145.516-1.145 1.273 0 .751.534 1.272 1.145 1.272Zm6.292-3.296h-.851v.342h-.03c-.198-.249-.581-.472-1.067-.472-1.013 0-1.941.919-1.941 2.104 0 1.173.928 2.092 1.941 2.092.486 0 .87-.223 1.067-.478h.03v.304c0 .801-.414 1.23-1.079 1.23-.545 0-.88-.404-1.018-.745l-.774.335c.222.559.816 1.241 1.798 1.241 1.043 0 1.924-.633 1.924-2.185V3.853Zm-1.87 3.24c.605 0 1.085-.527 1.079-1.266 0-.739-.474-1.279-1.079-1.279-.611 0-1.126.54-1.126 1.28 0 .732.515 1.266 1.126 1.266Zm2.475-5.419V7.84h.887V1.674h-.887Zm3.325 5.475c.456 0 .767-.23 1.001-.577l.69.478c-.228.342-.762.931-1.69.931-1.151 0-2.008-.925-2.008-2.098 0-1.248.869-2.098 1.912-2.098 1.048 0 1.563.863 1.731 1.335l.09.235-2.708 1.161c.21.416.527.633.982.633Zm-1.126-1.334c-.024-.807.605-1.223 1.06-1.223.354 0 .654.18.75.447l-1.81.776Z" clip-rule="evenodd"/></svg>