<svg xmlns="http://www.w3.org/2000/svg" width="135" height="56" fill="none"><g clip-path="url(#a)"><path fill="#54E6AF" fill-rule="evenodd" d="M28 0c15.464 0 28 12.536 28 28S43.464 56 28 56 0 43.464 0 28 12.536 0 28 0Zm-4.8 13.827c-1.535 0-2.758 1.048-2.979 2.553l-2.345 16.28c-.011.076-.04.274-.32.287-.269.011-.322-.172-.34-.25l-.758-3.34-.004-.015c-.492-2.056-2.337-3.548-4.388-3.548-.745 0-1.35.598-1.35 1.337 0 .738.605 1.337 1.35 1.337.798 0 1.553.637 1.759 1.484l.757 3.339.004.015c.34 1.426 1.612 2.377 3.09 2.312 1.479-.065 2.66-1.123 2.873-2.576l2.345-16.281c.013-.084.038-.26.303-.26l.09.008c.182.035.203.178.213.252l3.293 22.811c.223 1.538 1.464 2.6 3.025 2.6h.052c1.585-.023 2.817-1.13 2.996-2.69l.46-4.045a1.34 1.34 0 0 0-1.192-1.479 1.347 1.347 0 0 0-1.492 1.18l-.46 4.044c-.01.085-.035.312-.353.317-.315.006-.35-.222-.362-.306l-3.293-22.812c-.218-1.502-1.441-2.553-2.974-2.554ZM34.4 22.986c-1.398.036-2.485 1.023-2.643 2.4l-.571 5.004a1.34 1.34 0 0 0 1.19 1.479 1.347 1.347 0 0 0 1.493-1.178l.572-5.005a.266.266 0 0 1 .004-.024.154.154 0 0 1 .053-.002.22.22 0 0 1 .005.021l1.06 6.401c.228 1.36 1.36 2.346 2.75 2.4l.119.003c1.34 0 2.486-.883 2.812-2.182l.004-.016.477-2.003c.264-1.036 1.211-1.816 2.208-1.816.745 0 1.35-.599 1.35-1.337 0-.739-.605-1.337-1.35-1.337-2.239 0-4.27 1.62-4.83 3.852l-.005.016-.476 2.004c-.016.063-.045.15-.203.144-.166-.006-.182-.103-.192-.164l-1.06-6.4c-.23-1.368-1.367-2.297-2.767-2.26Z" clip-rule="evenodd"/></g><path fill="#fff" fill-rule="evenodd" d="M124.014 38.887c2.32 0 4.219-.976 5.695-2.928l.593 2.532h4.549V10h-5.775v10.605c-.58-.765-1.351-1.411-2.313-1.939-.963-.527-2.077-.791-3.342-.791-1.477 0-2.802.382-3.975 1.147-1.174.765-2.103 1.913-2.789 3.443-.685 1.53-1.028 3.39-1.028 5.58v.435c0 2.295.369 4.22 1.107 5.777.739 1.557 1.741 2.718 3.006 3.483 1.266.765 2.69 1.147 4.272 1.147Zm-49.043-2.73v9.497h-5.775V18.27h4.549l.593 2.533c1.477-1.952 3.375-2.928 5.695-2.928 1.582 0 3.006.382 4.272 1.147 1.265.765 2.267 1.926 3.006 3.483.738 1.556 1.107 3.482 1.107 5.777v.435c0 2.19-.343 4.05-1.028 5.58-.686 1.53-1.615 2.678-2.789 3.443-1.173.765-2.498 1.147-3.975 1.147-1.265 0-2.38-.264-3.342-.791-.962-.528-1.733-1.174-2.313-1.94Zm1.068-2.71c.712.83 1.621 1.246 2.729 1.246 1.107 0 2.017-.416 2.729-1.247.712-.83 1.067-2.011 1.067-3.542V26.62c0-1.556-.355-2.744-1.067-3.561-.712-.818-1.622-1.227-2.73-1.227-1.107 0-2.016.409-2.728 1.227-.712.817-1.068 2.005-1.068 3.561v3.284c0 1.53.356 2.711 1.068 3.542Zm26.301 5.44c1.872 0 3.56-.396 5.062-1.187 1.503-.791 2.683-1.939 3.54-3.443.857-1.503 1.286-3.271 1.286-5.302v-1.148c0-2.031-.429-3.799-1.286-5.302-.857-1.504-2.037-2.652-3.54-3.443-1.502-.792-3.19-1.187-5.062-1.187h-.633c-1.872 0-3.56.395-5.062 1.187-1.503.791-2.683 1.939-3.54 3.443-.857 1.503-1.286 3.27-1.286 5.302v1.148c0 2.031.429 3.799 1.286 5.302.857 1.504 2.037 2.652 3.54 3.443 1.502.791 3.19 1.187 5.062 1.187h.633Zm-3.46-5.223c.803.844 1.852 1.266 3.144 1.266s2.34-.422 3.144-1.266c.804-.845 1.206-2.071 1.206-3.68v-3.206c0-1.609-.402-2.836-1.206-3.68-.804-.844-1.852-1.266-3.144-1.266s-2.34.422-3.145 1.266c-.804.844-1.206 2.071-1.206 3.68v3.206c0 1.609.402 2.835 1.206 3.68Zm23.67.02c.712.83 1.622 1.246 2.729 1.246 1.108 0 2.018-.416 2.729-1.246.712-.831 1.068-2.012 1.068-3.542v-3.285c0-1.556-.356-2.743-1.068-3.561-.711-.818-1.621-1.227-2.729-1.227-1.107 0-2.017.41-2.729 1.227-.711.818-1.067 2.005-1.067 3.561v3.285c0 1.53.356 2.71 1.067 3.542Z" clip-rule="evenodd"/><defs><clipPath id="a"><path fill="#fff" d="M0 0h56v56H0z"/></clipPath></defs></svg>