<svg xmlns="http://www.w3.org/2000/svg" width="77" height="16" fill="none"><path fill="#5A668A" fill-rule="evenodd" d="M15.169 8.449c0 4.115-3.396 7.452-7.585 7.452S0 12.564 0 8.449 3.395.998 7.584.998c4.19 0 7.585 3.336 7.585 7.45Zm-7.514 3.588c-1.978 0-3.582-1.576-3.582-3.519S5.677 5 7.655 5c1.978 0 3.58 1.575 3.58 3.518H9.935c0-1.237-1.02-2.24-2.28-2.24-1.258 0-2.279 1.003-2.279 2.24 0 1.237 1.02 2.24 2.28 2.24v1.28Zm0-9.383c-3.297 0-5.97 2.625-5.97 5.864s2.673 5.865 5.97 5.865v-1.466c-2.473 0-4.477-1.97-4.477-4.399 0-2.429 2.004-4.398 4.477-4.398 2.472 0 4.476 1.97 4.476 4.398h1.493c0-3.239-2.673-5.864-5.97-5.864ZM20.04 4.485v8.114h1.829v-2.33h.46c1.77 0 3.057-.869 3.057-2.967 0-1.878-1.086-2.817-3.103-2.817h-2.242Zm3.529 2.874c0 .986-.437 1.45-1.31 1.45h-.401v-2.84h.425c.85 0 1.286.382 1.286 1.39ZM25.562 9.609c0 2.051 1.109 3.107 2.502 3.107 1.392 0 2.513-1.067 2.513-3.13 0-2.052-1.12-3.119-2.502-3.119-1.392 0-2.513 1.067-2.513 3.142Zm1.628-.024c0-1.135.33-1.692.862-1.692.542 0 .896.557.896 1.704 0 1.136-.342 1.704-.873 1.704-.542 0-.884-.568-.884-1.716Z" clip-rule="evenodd"/><path fill="#5A668A" d="M33.585 12.693c-1.64 0-2.608-1.125-2.608-3.084 0-1.913.991-3.119 2.702-3.119.543 0 .956.104 1.357.256l-.26 1.46c-.283-.127-.613-.232-.956-.232-.79 0-1.203.672-1.203 1.611 0 1.02.413 1.623 1.227 1.623.307 0 .625-.092.968-.22l.26 1.403a3.991 3.991 0 0 1-1.487.302ZM37.395 9.725V12.6h-1.71V4.241h1.71v4.95l1.393-2.596h1.876L39 9.469l1.711 3.131h-1.9l-1.416-2.875Z"/><path fill="#5A668A" fill-rule="evenodd" d="M42.917 6.467c-1.357 0-2.432 1.09-2.432 3.153 0 2.296 1.193 3.073 2.691 3.073.661 0 1.357-.152 1.947-.441l-.307-1.182c-.483.22-1.014.359-1.463.359-.755 0-1.215-.406-1.274-1.23h3.245v-.544c0-2.11-.968-3.188-2.407-3.188Zm0 1.287c.518 0 .79.533.826 1.437h-1.664c.035-.88.306-1.437.838-1.437Z" clip-rule="evenodd"/><path fill="#5A668A" d="M46.243 10.802V7.974h-.66v-1.38h.66V5.018h1.7v1.576h1.297v1.38h-1.297v2.586c0 .498.27.706.73.706.202 0 .379-.035.567-.08v1.367c-.26.081-.625.128-1.05.128-1.297 0-1.947-.522-1.947-1.879ZM54.986 12.693c-2.148 0-3.494-1.345-3.494-4.14 0-2.688 1.381-4.161 3.506-4.161.708 0 1.298.139 1.758.313l-.284 1.646c-.365-.15-.79-.29-1.297-.29-1.133 0-1.806.881-1.806 2.47 0 1.634.638 2.492 1.841 2.492.46 0 .897-.116 1.274-.278l.295 1.6a4.785 4.785 0 0 1-1.793.348Z"/><path fill="#5A668A" fill-rule="evenodd" d="M57.109 10.78c0 1.298.672 1.9 1.628 1.9.637 0 1.074-.22 1.523-.602l.212.522h1.487l-.13-1.066V8.53c0-1.38-.697-2.029-2.242-2.029-.79 0-1.51.186-2.124.43l.318 1.274c.472-.197 1.003-.336 1.499-.336.637 0 .873.278.873.788v.336a4.8 4.8 0 0 0-.944-.104c-.767 0-1.275.173-1.616.522-.319.302-.484.788-.484 1.367Zm3.044-.882v1.427c-.224.127-.472.22-.708.22-.472 0-.743-.244-.743-.847 0-.3.07-.51.2-.649.142-.128.342-.197.697-.197.2 0 .389.012.554.046Z" clip-rule="evenodd"/><path fill="#5A668A" d="M64.672 12.704a4.827 4.827 0 0 1-2.255-.557l.343-1.356c.65.348 1.298.557 1.888.557.437 0 .673-.186.673-.44 0-.255-.142-.372-.968-.696-1.145-.452-1.711-.881-1.711-1.89 0-1.113.779-1.832 2.148-1.832.695 0 1.333.163 1.911.441l-.342 1.356c-.531-.266-1.074-.44-1.57-.44-.365 0-.566.15-.566.394 0 .232.13.347.944.672 1.287.499 1.735.962 1.735 1.913 0 1.252-.897 1.878-2.23 1.878ZM67.88 10.802V7.974h-.66v-1.38h.66V5.018h1.7v1.576h1.297v1.38H69.58v2.586c0 .498.272.706.732.706.2 0 .377-.035.566-.08v1.367c-.259.081-.625.128-1.05.128-1.298 0-1.947-.522-1.947-1.879Z"/><mask id="a" width="5" height="7" x="71" y="6" maskUnits="userSpaceOnUse" style="mask-type:luminance"><path fill="#fff" fill-rule="evenodd" d="M71.25 6.354h4.63v6.429h-4.63V6.354Z" clip-rule="evenodd"/></mask><g mask="url(#a)"><path fill="#5A668A" d="M73.65 12.704a4.827 4.827 0 0 1-2.255-.557l.343-1.356c.65.348 1.298.557 1.888.557.436 0 .673-.186.673-.44 0-.255-.142-.372-.968-.696-1.145-.452-1.711-.881-1.711-1.89 0-1.113.779-1.832 2.148-1.832.695 0 1.333.163 1.911.441l-.342 1.356c-.531-.266-1.074-.44-1.57-.44-.365 0-.566.15-.566.394 0 .232.13.347.944.672 1.286.499 1.734.962 1.734 1.913 0 1.252-.896 1.878-2.23 1.878Z"/></g></svg>