<svg xmlns="http://www.w3.org/2000/svg" width="56" height="17" fill="none"><path fill="#5A668A" fill-rule="evenodd" d="M8.415.028C3.782.028.025 3.822.025 8.502s3.756 8.474 8.39 8.474c4.633 0 8.39-3.794 8.39-8.474S13.047.028 8.414.028Zm3.847 12.222a.52.52 0 0 1-.72.175c-1.97-1.215-4.449-1.49-7.369-.817a.523.523 0 0 1-.626-.397.528.528 0 0 1 .393-.633c3.196-.737 5.937-.42 8.149.945a.531.531 0 0 1 .173.727Zm.127-2.09a.65.65 0 0 0 .9-.218.664.664 0 0 0-.216-.908c-2.59-1.607-6.377-2.06-9.424-1.126a.663.663 0 0 0-.436.824c.105.35.47.546.816.44 2.668-.817 6.105-.412 8.36.988Zm.988-2.62c-2.704-1.622-7.165-1.772-9.746-.98a.783.783 0 0 1-.979-.528.794.794 0 0 1 .523-.989c2.964-.909 7.89-.733 11.003 1.134.373.223.496.71.274 1.086a.78.78 0 0 1-1.075.277Zm7.767-.798c0 .515.257.76 1.706 1.109l.003.001c1.764.433 2.484 1.106 2.481 2.321 0 1.44-1.089 2.37-2.774 2.37a4.701 4.701 0 0 1-3.193-1.236.097.097 0 0 1-.01-.134l.794-.953a.094.094 0 0 1 .134-.01c.772.674 1.462.962 2.307.962.762 0 1.235-.333 1.235-.868 0-.483-.235-.753-1.62-1.076-1.63-.397-2.572-.912-2.572-2.367 0-1.356 1.093-2.304 2.657-2.304 1.064 0 1.973.318 2.782.973.039.032.047.089.018.13l-.707 1.007a.093.093 0 0 1-.064.04.093.093 0 0 1-.07-.018c-.68-.512-1.327-.76-1.98-.76-.674 0-1.127.327-1.127.813Zm8.003-.334c-.73 0-1.33.29-1.824.886v-.67a.095.095 0 0 0-.094-.097H25.93a.095.095 0 0 0-.094.097v7.447c0 .053.042.096.094.096h1.298a.095.095 0 0 0 .094-.096v-2.35c.495.56 1.094.833 1.824.833 1.358 0 2.732-1.055 2.732-3.073.002-2.018-1.373-3.073-2.73-3.073h-.002Zm-.3 4.818c.897 0 1.523-.718 1.523-1.745 0-1.01-.64-1.744-1.523-1.744-.887 0-1.556.75-1.556 1.744 0 .995.669 1.745 1.556 1.745ZM35.4 6.408c-1.748 0-3.117 1.36-3.117 3.095 0 1.718 1.36 3.063 3.096 3.063 1.754 0 3.128-1.355 3.128-3.085 0-1.723-1.365-3.073-3.107-3.073ZM33.77 9.48c0 1 .7 1.755 1.63 1.755.939 0 1.62-.729 1.62-1.733 0-1.001-.705-1.756-1.64-1.756-.933 0-1.61.73-1.61 1.734Zm8.47-2.954h-1.428V5.054a.095.095 0 0 0-.094-.096H39.42a.096.096 0 0 0-.095.096v1.473h-.623a.095.095 0 0 0-.094.097v1.125c0 .053.042.097.094.097h.623v2.913c0 1.177.58 1.774 1.725 1.774.465 0 .85-.097 1.215-.305a.094.094 0 0 0 .048-.083v-1.073a.096.096 0 0 0-.046-.081.091.091 0 0 0-.092-.004c-.25.126-.49.185-.761.185-.416 0-.602-.191-.602-.618V7.846h1.428a.095.095 0 0 0 .094-.096V6.624a.092.092 0 0 0-.094-.096Zm4.972-.175v.181h2.216c.04 0 .074.025.089.062l1.514 3.993 1.384-3.99a.095.095 0 0 1 .09-.064h1.35c.031 0 .06.015.077.041.018.026.022.06.01.09l-2.25 5.872c-.465 1.212-.995 1.664-1.953 1.664-.512 0-.926-.107-1.385-.358a.096.096 0 0 1-.04-.125l.44-.974a.095.095 0 0 1 .055-.052.102.102 0 0 1 .075.007c.246.137.487.206.716.206.282 0 .49-.095.7-.566l-1.855-4.493h-1.212v4.493a.095.095 0 0 1-.095.096h-1.296a.096.096 0 0 1-.095-.096V7.845h-.623a.096.096 0 0 1-.096-.096V6.618c0-.053.044-.096.096-.096h.623v-.277c0-1.289.634-1.97 1.831-1.97.493 0 .822.079 1.078.156.041.013.067.05.067.092v1.104c0 .03-.014.06-.039.078a.093.093 0 0 1-.085.013 2.172 2.172 0 0 0-.731-.136c-.453 0-.656.238-.656.77Zm-2.883.175h-1.297a.096.096 0 0 0-.095.097v5.715c0 .053.043.096.095.096h1.297a.096.096 0 0 0 .095-.096V6.624a.095.095 0 0 0-.095-.096Zm-1.572-1.663c0-.519.417-.939.931-.939.513 0 .93.42.93.94 0 .518-.416.94-.93.94a.935.935 0 0 1-.93-.94ZM55.05 8.365a.914.914 0 0 1-.912-.922.914.914 0 1 1 1.83-.005.923.923 0 0 1-.918.927Zm-.816-.922a.82.82 0 0 1 .821-.835c.465 0 .817.37.817.83a.82.82 0 1 1-1.638.005Zm1.024.09.258.365h-.218l-.233-.335h-.199v.335h-.182V6.93h.427c.223 0 .37.115.37.309a.287.287 0 0 1-.222.294h-.001Zm-.392-.437h.237c.119 0 .19.053.19.153 0 .095-.071.153-.19.153h-.237v-.306Z" clip-rule="evenodd"/></svg>